# xmcd
#
# Track frame offsets:
#  150
#  22965
#  36858
#  51652
#  67714
#  81584
#  97260
#  119139
#  121882
#  136296
#  153643
#  168383
#  180948
#
# Disc length: 2602 seconds
#
# Revision: 0
# Processed by: cddbd v1.5.1PL2 Copyright (c) Steve Scherf et al.
# Submitted via: Collectorz.com_Music_Collector 6.9
#
DISCID=b50a280d
DTITLE=Bryan Sutton - Bluegrass Guitar
DYEAR=1955
DGENRE=Country
TTITLE0=13 - The Storms Are on the Ocean
TTITLE1=01 - Hangman's Reel
TTITLE2=02 - Daley's Reel
TTITLE3=03 - The High Road
TTITLE4=04 - Big Sandy River
TTITLE5=05 - Back Up and Push
TTITLE6=06 - Margaret's Waltz
TTITLE7=07 - Spoken Interview
TTITLE8=08 - High Heel Shoe
TTITLE9=09 - Nelia's Dance
TTITLE10=10 - Whippersnapper
TTITLE11=11 - Roanoke
TTITLE12=12 - Beaumont Rag
EXTD=
EXTT0=
EXTT1=
EXTT2=
EXTT3=
EXTT4=
EXTT5=
EXTT6=
EXTT7=
EXTT8=
EXTT9=
EXTT10=
EXTT11=
EXTT12=
PLAYORDER=
